<svg width="210" height="40" viewBox="0 0 210 40" fill="none" xmlns="http://www.w3.org/2000/svg">
<path d="M101.96 21.3817C101.51 20.7691 100.978 20.3187 100.372 20.0394C99.7659 19.7601 99.1049 19.625 98.398 19.625C97.6085 19.625 96.9566 19.7511 96.4333 19.9943C95.9192 20.2466 95.4051 20.5619 94.891 20.9493L94.8635 19.9133H89.7683V40.0034L94.8635 37.9943V33.634C95.2858 33.9493 95.754 34.2376 96.2865 34.5079C96.8189 34.7781 97.4524 34.9043 98.196 34.9043C99.8393 34.9043 101.115 34.2826 102.033 33.0304C102.952 31.7781 103.411 29.8412 103.411 27.2196C103.411 25.8592 103.282 24.697 103.025 23.7421C102.768 22.7781 102.41 21.9943 101.96 21.3817ZM98.2144 29.0934C98.1501 29.5349 98.0491 29.8862 97.9114 30.1385C97.7829 30.3907 97.6176 30.5619 97.4157 30.661C97.2137 30.7511 96.9842 30.8052 96.7179 30.8052C96.3232 30.8052 95.9835 30.7421 95.6897 30.607C95.4051 30.4718 95.1297 30.3097 94.8635 30.1024V24.4358C95.1297 24.2286 95.4051 24.0574 95.6897 23.9313C95.9743 23.7961 96.3048 23.7331 96.6904 23.7331C96.9566 23.7331 97.1953 23.7871 97.4065 23.8862C97.6176 23.9853 97.7829 24.1745 97.9206 24.4538C98.0583 24.7241 98.1593 25.1025 98.2236 25.5799C98.2878 26.0574 98.3245 26.67 98.3245 27.3997C98.3245 28.0934 98.2878 28.661 98.2236 29.1024L98.2144 29.0934ZM87.0967 21.3817C86.6469 20.7691 86.1144 20.3187 85.5085 20.0394C84.9026 19.7601 84.2416 19.625 83.5347 19.625C82.7452 19.625 82.0933 19.7511 81.5701 19.9943C81.056 20.2466 80.5418 20.5619 80.0277 20.9493L80.0002 19.9133H74.905V40.0034L80.0002 37.9943V33.634C80.4133 33.9493 80.8907 34.2376 81.4232 34.5079C81.9556 34.7781 82.5891 34.9043 83.3327 34.9043C84.976 34.9043 86.2521 34.2826 87.1702 33.0304C88.0882 31.7781 88.5473 29.8412 88.5473 27.2196C88.5473 25.8592 88.4187 24.697 88.1617 23.7421C87.9046 22.7781 87.5466 21.9943 87.0967 21.3817ZM83.3419 29.0934C83.2776 29.5349 83.1767 29.8862 83.0389 30.1385C82.9104 30.3907 82.736 30.5619 82.5432 30.661C82.3412 30.7511 82.1117 30.8052 81.8455 30.8052C81.4415 30.8052 81.1019 30.7421 80.8173 30.607C80.5327 30.4718 80.2572 30.3097 79.991 30.1024V24.4358C80.2572 24.2286 80.5327 24.0574 80.8173 23.9313C81.1019 23.7961 81.4324 23.7331 81.8179 23.7331C82.0842 23.7331 82.3229 23.7871 82.534 23.8862C82.7452 23.9853 82.9104 24.1745 83.0481 24.4538C83.1767 24.7241 83.2776 25.1025 83.3511 25.5799C83.4153 26.0574 83.4521 26.67 83.4521 27.3997C83.4521 28.0934 83.4153 28.661 83.3511 29.1024L83.3419 29.0934ZM67.7442 28.3187C67.7442 29.2466 67.5881 29.8772 67.2851 30.1925C66.9822 30.5079 66.5599 30.67 66.0366 30.67C65.5133 30.67 65.0818 30.5079 64.7789 30.1835C64.4759 29.8592 64.3198 29.2196 64.3198 28.2736V19.9403H59.1604V28.9133C59.1604 30.8502 59.5551 32.3367 60.3447 33.3727C61.1342 34.4088 62.3552 34.9223 64.0077 34.9223C64.8798 34.9223 65.6051 34.7961 66.1835 34.5439C66.7619 34.2916 67.276 33.9943 67.735 33.634V34.607H72.8853V19.9313H67.735V28.3187H67.7442ZM56.1767 24.4808C55.5891 23.9943 54.8363 23.5799 53.9275 23.2286C53.0186 22.8772 51.9353 22.5529 50.6776 22.2466C50.0349 22.0934 49.5024 21.9583 49.0801 21.8412C48.6578 21.7151 48.3273 21.5979 48.0795 21.4808C47.8316 21.3637 47.6572 21.2286 47.5562 21.0934C47.4552 20.9493 47.4001 20.7871 47.4001 20.607C47.4001 20.2556 47.5378 19.9673 47.7949 19.7421C48.0611 19.5169 48.6119 19.4088 49.4474 19.4088C50.4756 19.4088 51.4304 19.5619 52.3209 19.8862C53.2114 20.2015 54.1019 20.661 54.9924 21.2556L57.6731 17.0034C56.6082 16.2826 55.4514 15.7151 54.1845 15.3277C52.9176 14.9403 51.4395 14.7421 49.7228 14.7421C48.5293 14.7421 47.446 14.8862 46.4729 15.1925C45.4997 15.4988 44.6735 15.9133 43.9941 16.4538C43.3148 16.9943 42.7823 17.643 42.4151 18.4088C42.0479 19.1745 41.8551 20.0124 41.8551 20.9313C41.8551 21.9133 42.0019 22.7511 42.2957 23.4178C42.5895 24.0844 43.0302 24.661 43.6177 25.1385C44.2053 25.616 44.9489 26.0124 45.8394 26.3277C46.7299 26.643 47.7765 26.9403 48.97 27.2196C49.631 27.3727 50.1818 27.5169 50.6225 27.652C51.0631 27.7961 51.4028 27.9313 51.6599 28.0754C51.9169 28.2196 52.1005 28.3637 52.2015 28.5079C52.3025 28.652 52.3576 28.8232 52.3576 29.0124C52.3576 29.4718 52.174 29.8052 51.7976 29.9853C51.4304 30.1745 50.751 30.2646 49.7595 30.2646C49.3005 30.2646 48.8047 30.2106 48.2814 30.0934C47.749 29.9853 47.2257 29.8322 46.7024 29.652C46.1791 29.4628 45.6742 29.2556 45.1968 29.0214C44.7102 28.7871 44.2879 28.5529 43.9299 28.3097L41.2491 32.5619C42.2957 33.2286 43.5535 33.7961 45.0223 34.2556C46.4912 34.7151 48.0336 34.9403 49.6493 34.9403C50.8428 34.9403 51.9445 34.8142 52.9543 34.5799C53.9642 34.3367 54.8272 33.9673 55.5616 33.4628C56.296 32.9583 56.8652 32.3097 57.2692 31.5079C57.6823 30.7061 57.8843 29.7511 57.8843 28.634C57.8843 27.7241 57.7466 26.9313 57.462 26.2556C57.1774 25.5889 56.7367 25.0034 56.1492 24.5259L56.1767 24.4808ZM188.294 26.8052C187.807 26.4358 187.192 26.1025 186.439 25.8232C185.687 25.5439 184.787 25.2646 183.749 24.9853C183.428 24.8952 183.171 24.8142 182.969 24.7331C182.767 24.661 182.62 24.5799 182.519 24.5079C182.418 24.4358 182.345 24.3547 182.317 24.2736C182.29 24.1925 182.271 24.0934 182.271 23.9763C182.271 23.7511 182.354 23.5889 182.528 23.4898C182.694 23.3907 183.033 23.3367 183.52 23.3367C184.181 23.3367 184.897 23.4358 185.659 23.625C186.421 23.8232 187.293 24.1385 188.275 24.5619L189.414 20.679C188.918 20.5079 188.45 20.3547 187.991 20.2196C187.532 20.0754 187.082 19.9673 186.623 19.8862C186.164 19.8052 185.696 19.7421 185.227 19.688C184.75 19.643 184.227 19.616 183.658 19.616C181.61 19.616 180.077 20.0394 179.077 20.8862C178.067 21.7331 177.571 22.9133 177.571 24.4178C177.571 25.1835 177.681 25.8322 177.892 26.3547C178.113 26.8772 178.461 27.3277 178.948 27.7061C179.425 28.0844 180.068 28.4268 180.858 28.7151C181.647 29.0034 182.62 29.3006 183.777 29.5979C184.273 29.7331 184.594 29.8592 184.741 29.9763C184.888 30.1025 184.97 30.2826 184.97 30.5169C184.97 30.7421 184.869 30.9043 184.658 31.0214C184.447 31.1295 184.098 31.1925 183.603 31.1925C182.942 31.1925 182.143 31.0754 181.216 30.8412C180.288 30.607 179.361 30.2916 178.452 29.9043L177.259 33.7061C178.232 34.0754 179.233 34.3727 180.279 34.5799C181.326 34.7961 182.391 34.9043 183.502 34.9043C185.42 34.9043 186.926 34.5079 188.028 33.7061C189.129 32.9043 189.68 31.652 189.68 29.9583C189.68 29.2286 189.57 28.616 189.35 28.1115C189.129 27.607 188.78 27.1745 188.294 26.7961V26.8052ZM104.641 34.607H109.736V14.2286L104.641 16.2376V34.607ZM158.824 21.5169C158.191 20.8862 157.429 20.4088 156.557 20.0934C155.685 19.7781 154.73 19.616 153.711 19.616C152.692 19.616 151.737 19.7781 150.865 20.0934C149.993 20.4088 149.24 20.8862 148.616 21.5169C147.991 22.1565 147.495 22.9403 147.147 23.8952C146.798 24.8412 146.614 25.9673 146.614 27.2466C146.614 28.5259 146.789 29.625 147.147 30.5709C147.495 31.5259 147.991 32.3187 148.616 32.9583C149.24 33.5979 149.993 34.0844 150.865 34.4088C151.737 34.7331 152.692 34.8952 153.711 34.8952C154.73 34.8952 155.685 34.7331 156.557 34.4088C157.429 34.0844 158.182 33.5979 158.824 32.9583C159.458 32.3097 159.953 31.5169 160.302 30.5709C160.651 29.625 160.826 28.5079 160.826 27.2466C160.826 25.9853 160.651 24.8412 160.302 23.8952C159.953 22.9493 159.458 22.1565 158.824 21.5169ZM153.729 30.8052C152.389 30.8052 151.719 29.625 151.719 27.2556C151.719 26.0214 151.884 25.1205 152.223 24.5709C152.563 24.0124 153.059 23.7421 153.72 23.7421C154.381 23.7421 154.877 24.0214 155.216 24.5709C155.556 25.1205 155.721 26.0214 155.721 27.2556C155.721 29.625 155.051 30.8052 153.711 30.8052H153.729ZM202.211 21.634C201.009 20.2916 199.393 19.625 197.337 19.625C196.345 19.625 195.436 19.7871 194.601 20.1115C193.765 20.4358 193.04 20.9223 192.434 21.5619C191.828 22.2106 191.351 23.0034 191.011 23.9583C190.672 24.9043 190.497 26.0124 190.497 27.2826C190.497 28.3997 190.644 29.4358 190.947 30.3727C191.25 31.3097 191.7 32.1205 192.287 32.7871C192.875 33.4628 193.609 33.9853 194.481 34.3547C195.354 34.7241 196.354 34.9133 197.474 34.9133C198.649 34.9133 199.724 34.7691 200.706 34.4808C201.679 34.1925 202.634 33.7781 203.57 33.2376L201.606 30.0214C200.871 30.3907 200.201 30.661 199.613 30.8232C199.026 30.9763 198.392 31.0574 197.731 31.0574C197.024 31.0574 196.455 30.8682 196.005 30.4988C195.556 30.1295 195.289 29.5259 195.198 28.7061H203.965C203.983 28.5709 203.993 28.4268 203.993 28.2736V27.7241C203.993 25.0034 203.396 22.9673 202.202 21.634H202.211ZM195.207 25.5709C195.372 24.0844 196.042 23.3367 197.199 23.3367C197.961 23.3367 198.493 23.5169 198.806 23.8952C199.118 24.2646 199.338 24.8232 199.476 25.5709H195.207ZM170.621 28.3187C170.621 29.2466 170.465 29.8772 170.162 30.1925C169.859 30.5079 169.437 30.67 168.914 30.67C168.39 30.67 167.968 30.5079 167.656 30.1835C167.353 29.8592 167.206 29.2196 167.206 28.2736V19.9403H162.056V28.9133C162.056 30.8502 162.451 32.3367 163.231 33.3727C164.02 34.4088 165.241 34.9223 166.894 34.9223C167.766 34.9223 168.491 34.7961 169.07 34.5439C169.648 34.2916 170.162 33.9943 170.621 33.634V34.607H175.781V19.9313H170.621V28.3187ZM119.954 25.1025C119.862 25.4178 119.761 25.8142 119.651 26.2736C119.55 26.7421 119.44 27.2196 119.32 27.697C119.21 28.1835 119.1 28.661 119.008 29.1385C118.907 29.616 118.834 30.0304 118.779 30.3817C118.742 30.0304 118.678 29.616 118.577 29.1475C118.485 28.688 118.375 28.2015 118.265 27.7061C118.154 27.2106 118.035 26.7421 117.925 26.2916C117.815 25.8412 117.714 25.4628 117.64 25.1475L116.217 19.9223H110.783L116.474 35.2106L114.592 39.7691H119.495L126.729 19.9223H121.349L119.954 25.0934V25.1025ZM139.499 22.1655H133.293V15.0304H127.656V34.5979H133.293V26.8862H139.499V34.5979H145.136V15.0304H139.499V22.1655Z" fill="#301912"/>
<path d="M67.5055 7.85019C67.5055 7.85019 47.5378 1.65199 28.2862 10.3907C14.6439 16.5889 20.3726 26.0304 21.2356 26.2105C27.1754 27.4538 32.803 27.4628 32.803 27.4628C32.803 27.4628 24.9261 23.0033 32.5735 16.0664C45.0958 4.70604 67.4963 7.85019 67.4963 7.85019" fill="#AF8256"/>
<path d="M67.6982 7.93128C67.6982 7.93128 56.0941 -3.82547 21.9884 5.93128C4.00369 11.0754 11.1921 23.5619 11.6786 23.7511C16.1404 25.4718 22.9431 26.5169 22.9431 26.5169C22.9431 26.5169 15.6905 17.4628 27.3039 11.661C46.6289 1.99435 67.6982 7.92227 67.6982 7.92227" fill="#5A3727"/>
<path d="M67.7901 7.9673C67.7901 7.9673 54.4141 -3.65432 21.9334 1.17451C9.83341 2.97631 -1.17405 9.13847 1.36896 15.5709C3.77426 21.643 13.0558 24.2286 13.0558 24.2286C13.0558 24.2286 5.592 13.4808 22.218 6.78712C42.7732 -1.49216 67.7901 7.97631 67.7901 7.97631" fill="#301912"/>
<path d="M123 4.27919H125.313V10.8627H127.804V4.27919H130.117V1.96605H123V4.27919ZM155.561 8.5496V7.65993H158.586V5.34679H155.561V4.27919H159.297V1.96605H153.07V11.0407H159.297V8.5496H155.561ZM150.757 1.96605C148.8 1.96605 145.597 1.96605 145.597 1.96605V9.79513C144.707 7.30406 143.818 4.63505 142.928 2.14398C142.928 1.96605 142.928 1.96605 142.75 1.96605H140.437C140.259 1.96605 140.081 1.96605 140.081 2.32192L137.768 9.6172L136.7 8.01579C136.7 8.01579 137.056 7.83786 137.412 7.48199C137.59 7.30406 137.768 7.12613 137.768 6.59232V4.27919C137.768 3.03365 136.7 1.96605 135.633 1.96605H130.651V4.63505C130.651 5.52472 130.651 11.0407 130.651 11.0407H133.142V8.72753C133.854 8.72753 134.387 8.72753 134.387 8.72753L135.811 11.0407C135.811 11.0407 136.523 11.0407 137.412 11.0407C138.302 11.0407 139.903 11.0407 139.903 11.0407C140.081 11.0407 140.081 11.0407 140.081 10.8627L141.149 6.94819C141.327 6.41439 141.505 5.70266 141.505 5.34679H141.682C141.682 5.70266 141.86 6.41439 142.038 6.94819L142.394 8.19373H141.327L140.793 10.151H142.928L143.106 10.8627C143.106 11.0407 143.106 11.0407 143.284 11.0407H145.953C147.91 11.0407 149.333 11.0407 151.291 11.0407C151.646 11.0407 152.002 10.6848 152.18 10.5069C152.536 9.97307 152.536 9.43926 152.536 9.26133C152.536 7.65993 152.536 6.59232 152.536 4.99092C152.536 3.92332 152.536 3.21159 152.002 2.49985C151.468 1.96605 150.935 1.96605 150.757 1.96605ZM135.099 6.41439H133.142V4.27919H135.099V6.41439ZM149.867 8.5496H148.266V4.27919H149.867V8.5496Z" fill="#0066AD"/>
<path d="M178.01 4.90195C177.832 4.90195 177.654 4.72401 177.654 4.54608C177.654 4.36815 177.654 4.19021 177.832 4.19021H178.01H181.035V1.87708H178.01C176.943 1.87708 175.697 2.05501 175.341 3.30054C174.985 4.19021 175.163 5.25781 175.697 5.96955C176.053 6.50335 176.765 6.85922 177.299 7.21509C177.832 7.57095 178.544 7.92682 179.078 8.28269C179.256 8.28269 179.256 8.46062 179.256 8.63855C179.256 8.81649 179.078 8.81649 178.9 8.81649C178.01 8.81649 176.943 8.81649 176.053 8.81649L176.765 11.1296H179.612C180.679 11.1296 181.569 10.7738 181.925 9.70616C182.28 8.63855 181.925 7.74889 181.213 7.21509C180.323 5.96955 178.9 5.43575 178.01 4.90195ZM181.569 4.19021H182.992V10.7738H185.483V4.19021H187.085V1.87708H181.569V4.19021ZM173.028 1.87708C172.317 1.87708 171.427 1.87708 170.715 1.87708C170.537 1.87708 170.359 1.87708 170.359 2.23294C169.648 4.36815 168.936 6.68128 168.224 8.81649C168.224 8.99442 168.046 9.17236 168.046 9.52822V2.05501H165.199L163.954 7.03715L162.886 1.87708H159.862V10.9517H161.997V6.50335L163.242 10.7738H165.021L166.089 6.68128V10.7738H170.181C170.359 10.7738 170.359 10.7738 170.359 10.7738L171.427 6.85922C171.605 6.32542 171.783 5.61368 171.783 5.25781H171.961C171.961 5.61368 172.139 6.32542 172.317 6.85922L172.85 8.10475H171.783L171.249 10.062H173.384L173.562 10.7738C173.562 10.9517 173.562 10.9517 173.74 10.9517H176.231L173.384 2.23294C173.384 1.87708 173.206 1.87708 173.028 1.87708ZM190.109 7.39302H193.134V5.25781H190.109V4.19021H193.846V1.87708H187.618V10.7738H193.846V8.46062H190.287L190.109 7.39302ZM200.251 7.92682C200.251 7.92682 200.607 7.74889 200.963 7.39302C201.141 7.21508 201.319 7.03715 201.319 6.50335V4.19021C201.319 2.94468 200.251 1.87708 199.184 1.87708H194.202V4.54608C194.202 5.43575 194.202 10.9517 194.202 10.9517H196.693V8.63855C197.404 8.63855 197.938 8.63855 197.938 8.63855L199.362 10.9517C199.362 10.9517 201.141 10.9517 202.208 10.9517L200.251 7.92682ZM198.65 6.32542H196.693V4.19021H198.65V6.32542Z" fill="#5A5A5A"/>
</svg>
