<svg width="141" height="17" viewBox="0 0 141 17" fill="none" xmlns="http://www.w3.org/2000/svg">
<path d="M0 4.2704H4.0991V15.9745H8.51351V4.2704H12.6126V0.158157H0V4.2704ZM57.7027 11.8622V10.2806H63.0631V6.16836H57.7027V4.2704H64.3243V0.158157H53.2883V16.2908H64.3243V11.8622H57.7027ZM49.1892 0.158157C45.7207 0.158157 40.045 0.158157 40.045 0.158157V14.0765C38.4685 9.64795 36.8919 4.90306 35.3153 0.474484C35.3153 0.158157 35.3153 0.158157 35 0.158157H30.9009C30.5856 0.158157 30.2703 0.158157 30.2703 0.79081L26.1712 13.7602L24.2793 10.9133C24.2793 10.9133 24.9099 10.5969 25.5405 9.96428C25.8559 9.64795 26.1712 9.33163 26.1712 8.38265V4.2704C26.1712 2.05612 24.2793 0.158157 22.3874 0.158157H13.5586V4.90306C13.5586 6.48469 13.5586 16.2908 13.5586 16.2908H17.973V12.1786C19.2342 12.1786 20.1802 12.1786 20.1802 12.1786L22.7027 16.2908C22.7027 16.2908 23.964 16.2908 25.5405 16.2908C27.1171 16.2908 29.955 16.2908 29.955 16.2908C30.2703 16.2908 30.2703 16.2908 30.2703 15.9745L32.1622 9.0153C32.4775 8.06632 32.7928 6.80101 32.7928 6.16836H33.1081C33.1081 6.80101 33.4234 8.06632 33.7387 9.0153L34.3694 11.2296H32.4775L31.5315 14.7092H35.3153L35.6306 15.9745C35.6306 16.2908 35.6306 16.2908 35.9459 16.2908H40.6757C44.1441 16.2908 46.6667 16.2908 50.1351 16.2908C50.7658 16.2908 51.3964 15.6582 51.7117 15.3418C52.3423 14.3929 52.3423 13.4439 52.3423 13.1275C52.3423 10.2806 52.3423 8.38265 52.3423 5.53571C52.3423 3.63775 52.3423 2.37244 51.3964 1.10714C50.4504 0.158157 49.5045 0.158157 49.1892 0.158157ZM21.4414 8.06632H17.973V4.2704H21.4414V8.06632ZM47.6126 11.8622H44.7748V4.2704H47.6126V11.8622Z" fill="white"/>
<path d="M97.4865 5.37755C97.1712 5.37755 96.8559 5.06122 96.8559 4.7449C96.8559 4.42857 96.8559 4.11224 97.1712 4.11224H97.4865H102.847V0H97.4865C95.5946 0 93.3874 0.316327 92.7568 2.53061C92.1261 4.11225 92.4414 6.0102 93.3874 7.27551C94.018 8.22449 95.2793 8.85714 96.2252 9.4898C97.1712 10.1224 98.4324 10.7551 99.3784 11.3878C99.6937 11.3878 99.6937 11.7041 99.6937 12.0204C99.6937 12.3367 99.3784 12.3367 99.0631 12.3367C97.4865 12.3367 95.5946 12.3367 94.018 12.3367L95.2793 16.449H100.324C102.216 16.449 103.793 15.8163 104.423 13.9184C105.054 12.0204 104.423 10.4388 103.162 9.4898C101.586 7.27551 99.0631 6.32653 97.4865 5.37755ZM103.793 4.11224H106.315V15.8163H110.73V4.11224H113.568V0H103.793V4.11224ZM88.6577 0C87.3964 0 85.8198 0 84.5586 0C84.2432 0 83.9279 0 83.9279 0.632653C82.6667 4.42857 81.4054 8.54082 80.1441 12.3367C80.1441 12.6531 79.8288 12.9694 79.8288 13.602V0.316327H74.7838L72.5766 9.17347L70.6847 0H65.3243V16.1327H69.1081V8.22449L71.3153 15.8163H74.4685L76.3604 8.54082V15.8163H83.6126C83.9279 15.8163 83.9279 15.8163 83.9279 15.8163L85.8198 8.85714C86.1351 7.90816 86.4504 6.64286 86.4504 6.0102H86.7658C86.7658 6.64286 87.0811 7.90816 87.3964 8.85714L88.3423 11.0714H86.4504L85.5045 14.551H89.2883L89.6036 15.8163C89.6036 16.1327 89.6036 16.1327 89.9189 16.1327H94.3333L89.2883 0.632653C89.2883 0 88.973 0 88.6577 0ZM118.928 9.80612H124.288V6.0102H118.928V4.11224H125.55V0H114.514V15.8163H125.55V11.7041H119.243L118.928 9.80612ZM136.901 10.7551C136.901 10.7551 137.532 10.4388 138.162 9.80612C138.477 9.4898 138.793 9.17347 138.793 8.22449V4.11224C138.793 1.89796 136.901 0 135.009 0H126.18V4.7449C126.18 6.32653 126.18 16.1327 126.18 16.1327H130.595V12.0204C131.856 12.0204 132.802 12.0204 132.802 12.0204L135.324 16.1327C135.324 16.1327 138.477 16.1327 140.369 16.1327L136.901 10.7551ZM134.063 7.90816H130.595V4.11224H134.063V7.90816Z" fill="white"/>
</svg>
