<svg width="156" height="36" viewBox="0 0 156 36" fill="none" xmlns="http://www.w3.org/2000/svg">
<path d="M62.8268 28.2332C63.0037 28.2096 63.1103 28.2595 63.2206 28.5256C63.2622 28.6143 63.2909 28.7085 63.3059 28.8054C63.314 28.9598 63.3129 29.1146 63.3027 29.2689C63.3115 29.3177 63.3303 29.3642 63.358 29.4053C63.3856 29.4464 63.4214 29.4813 63.4632 29.5077C63.5913 29.6178 63.7571 29.6733 63.9253 29.6624C64.1824 29.6303 64.3228 29.3154 64.2566 28.8295C64.2518 28.613 64.2001 28.4002 64.1052 28.206C64.0102 28.0118 63.8744 27.8409 63.707 27.7051C63.5396 27.5693 63.3448 27.4719 63.1361 27.4198C62.9274 27.3676 62.7099 27.362 62.4987 27.4032C62.3096 27.4453 62.1311 27.5261 61.9741 27.6405C61.8172 27.7549 61.6852 27.9005 61.5863 28.0682C61.4874 28.2359 61.4237 28.4222 61.3991 28.6156C61.3746 28.8091 61.3897 29.0054 61.4435 29.1926C61.5375 29.7723 61.7302 30.3313 62.0131 30.8447C62.2148 31.2392 62.7906 32.3961 62.6536 32.5034C62.1814 32.3717 61.6636 31.532 61.3097 31.3233C61.3288 31.1172 61.2925 30.9939 61.2473 31.0536C61.202 31.1134 61.0951 31.2395 61.0147 31.336C60.9295 31.3911 60.8637 31.4717 60.8265 31.5664C60.2058 32.243 59.383 32.6975 58.4831 32.8607C58.3639 32.8918 58.2396 32.897 58.1183 32.8762C57.997 32.8553 57.8816 32.8087 57.7796 32.7396C57.6386 32.572 57.5412 32.3718 57.496 32.1569C57.4508 31.942 57.4592 31.719 57.5204 31.5081C57.8288 31.6502 58.171 31.7013 58.5074 31.6555C58.5769 31.6515 58.6453 31.6362 58.7101 31.6103C59.0784 31.4593 59.4012 31.2139 59.6464 30.8985C59.8915 30.5831 60.0505 30.2087 60.1075 29.8125C60.1759 29.5542 60.2007 29.2862 60.181 29.0197C60.1447 28.9351 60.1018 28.8536 60.0527 28.7759C60.0207 28.6537 59.9604 28.541 59.8766 28.447C59.7927 28.353 59.6879 28.2805 59.5707 28.2355C59.4005 28.1682 59.2148 28.151 59.0352 28.1859C57.8929 28.3439 56.2224 30.2603 56.4545 32.0411C56.4406 32.1917 56.5054 32.3496 56.5401 32.4888L56.4727 32.5305C55.7967 32.8837 55.234 33.2154 54.8783 33.4544C54.4418 33.7233 53.965 33.9195 53.4665 34.0353C53.4071 34.048 53.3454 34.0438 53.2884 34.0229C53.2313 34.0021 53.1813 33.9655 53.1439 33.9175C52.9612 33.6606 53.1205 32.8837 53.1691 32.6163C53.5552 30.0772 54.0525 28.0521 54.3908 25.7725C54.5234 25.2872 54.5461 24.7783 54.4572 24.2832C54.3028 23.8931 53.8065 23.3353 53.3867 23.7523C52.9669 24.1692 53.3194 24.9935 53.2905 25.3906C53.2005 26.1377 53.063 26.8782 52.8787 27.6075C52.6475 28.8176 52.3998 30.0341 52.2222 31.2652C52.0446 32.4962 51.6032 34.5184 52.8407 34.9609C53.1692 35.0754 53.5204 35.1079 53.8643 35.0557C54.4437 34.9735 55.1506 34.2873 56.1548 33.4767C56.3587 33.2951 56.5494 33.0989 56.7253 32.8898C56.871 33.0644 57.0492 33.2085 57.2499 33.3142C57.7003 33.5882 58.2272 33.7072 58.7511 33.6532C59.6806 33.4643 60.5006 32.9177 61.0364 32.1297C61.5076 32.7011 62.5748 33.4397 63.1377 33.3639C63.2237 33.3628 63.3094 33.3547 63.3941 33.3396C63.7479 33.2924 63.8743 33.1282 63.816 32.643C63.6762 32.0821 63.4991 31.5314 63.2857 30.9946C63.0582 30.5209 62.862 30.0326 62.6985 29.5328C62.3812 28.6717 62.5749 28.2099 62.8268 28.2332ZM59.3319 29.013C59.4946 29.228 58.6723 30.3033 58.5245 30.4416C58.3767 30.5798 58.0823 30.9284 57.7747 30.8199C58.122 29.9005 59.1942 28.7843 59.3348 28.9813L59.3319 29.013ZM66.6791 27.7105C66.8524 27.7265 66.9626 27.7367 67.073 28.0028C67.1145 28.0942 67.1429 28.1911 67.1575 28.2905C67.1658 28.4423 67.165 28.5944 67.155 28.7461C67.1741 28.8463 67.2315 28.9348 67.3148 28.9928C67.4454 29.0981 67.6105 29.1505 67.7777 29.1397C68.0348 29.1075 68.1751 28.7926 68.1089 28.3067C68.0978 28.094 68.0412 27.8863 67.943 27.6977C67.8449 27.5091 67.7074 27.3441 67.54 27.214C67.3727 27.0839 67.1794 26.9917 66.9733 26.9437C66.7672 26.8957 66.5532 26.893 66.3459 26.9359C66.1572 26.9772 65.9789 27.0572 65.822 27.1708C65.6652 27.2844 65.5333 27.4293 65.4344 27.5964C65.3355 27.7635 65.2717 27.9492 65.2471 28.1421C65.2226 28.335 65.2376 28.5308 65.2914 28.7174C65.3854 29.2972 65.5781 29.8561 65.8611 30.3695C66.062 30.772 66.6378 31.9288 66.5015 32.0282C65.952 31.8733 65.3332 30.7524 65.0267 30.804C64.9662 30.8135 64.9092 30.8385 64.8611 30.8766C64.6912 30.9968 64.6258 31.1027 64.6455 31.2325C64.7087 31.7501 66.2623 32.9816 66.9857 32.8887L67.2413 32.8724C67.5951 32.8252 67.7215 32.661 67.6553 32.175C67.5218 31.6135 67.3472 31.0628 67.1329 30.5273C66.9068 30.0504 66.7109 29.5595 66.5464 29.0576C66.2335 28.149 66.4243 27.7188 66.6821 27.6787L66.6791 27.7105ZM67.6086 3.44685C71.801 4.5926 75.8726 6.14546 79.7661 8.08359C81.3032 8.81833 82.7881 9.65858 84.2106 10.5984C84.861 11.0345 85.0589 10.0133 84.575 9.66459L84.5007 9.60973C82.7045 8.35055 80.7756 7.29493 78.7489 6.46201C74.4774 4.44624 70.0111 2.8776 65.4202 1.78075C59.2733 0.290644 52.9391 -0.269181 46.626 0.119696C38.8402 0.646167 31.2223 2.65392 24.1757 6.0366C15.8834 10.11 8.34617 15.5871 1.89322 22.2287L3.87249 16.5506C3.99069 16.2177 3.11247 15.4966 3.01369 15.7913C2.91492 16.086 2.76502 16.5039 2.63675 16.8599L0.0102552 24.3813C-0.0892533 24.684 0.560831 25.2959 0.795046 25.2537L1.86103 24.9766L9.24052 23.0693C9.44397 23.0162 9.17215 22.6071 9.12144 22.5545C9.07073 22.5018 8.75313 22.0725 8.52532 22.1314L7.46007 22.4006L2.07356 23.7968C2.7324 23.1141 3.39124 22.4315 4.07223 21.7669C10.913 14.9686 18.9602 9.52383 27.7949 5.71615C34.7387 2.83343 42.1543 1.28029 49.6607 1.13651C55.7227 1.03096 61.7674 1.79826 67.6115 3.41514L67.6086 3.44685ZM153.339 17.6419C153.779 14.2601 155.26 10.5349 155.185 9.96827C155.138 9.76873 155.023 9.59191 154.861 9.46763C154.699 9.34335 154.499 9.27924 154.295 9.2861C154.246 9.28347 154.197 9.2998 154.159 9.33183C154.12 9.36385 154.095 9.40922 154.089 9.45888C153.891 10.656 152.473 15.9304 152.531 17.1033C152.56 17.6497 153.273 18.0917 153.342 17.6102L153.339 17.6419ZM123.985 18.4412C124.015 18.4993 124.06 18.5479 124.116 18.5813C124.172 18.6148 124.236 18.6318 124.301 18.6304C124.719 18.5732 125.11 17.5298 125.058 17.1492C125.055 17.0611 125.035 16.9744 124.998 16.8942C124.962 16.814 124.911 16.7418 124.847 16.6818C124.776 16.6127 124.692 16.5586 124.6 16.5226C124.507 16.4866 124.409 16.4694 124.31 16.4722C123.844 16.533 123.756 17.4844 123.809 17.8571C123.823 18.0627 123.883 18.2623 123.985 18.4412ZM152.595 19.1563C152.333 19.2065 152.097 19.3503 151.932 19.5612C151.766 19.7722 151.682 20.0361 151.694 20.3044C151.752 20.7096 151.98 20.9946 152.318 20.9459C152.579 20.8571 152.807 20.6892 152.97 20.4653C153.132 20.2413 153.223 19.9722 153.228 19.6948C153.23 19.6146 153.215 19.5349 153.182 19.4616C153.15 19.3884 153.101 19.3234 153.041 19.2717C152.98 19.2199 152.908 19.1827 152.831 19.1627C152.754 19.1427 152.673 19.1406 152.595 19.1563ZM149.022 16.5783C149.199 16.5547 149.313 16.6053 149.423 16.8714C149.465 16.9601 149.494 17.0543 149.509 17.1512C149.491 17.3415 149.478 17.4842 149.466 17.611C149.474 17.6604 149.492 17.7075 149.52 17.7488C149.547 17.7901 149.584 17.8246 149.627 17.8498C149.755 17.9599 149.921 18.0155 150.089 18.0046C150.346 17.9724 150.486 17.6576 150.42 17.1716C150.409 16.9588 150.352 16.7509 150.254 16.5621C150.156 16.3733 150.019 16.208 149.852 16.0772C149.685 15.9465 149.492 15.8535 149.286 15.8044C149.08 15.7554 148.866 15.7514 148.658 15.7929C148.471 15.8383 148.296 15.9219 148.143 16.0383C147.99 16.1548 147.862 16.3017 147.767 16.4699C147.673 16.6381 147.613 16.8241 147.593 17.0162C147.573 17.2083 147.592 17.4025 147.65 17.5867C147.741 18.1658 147.931 18.7245 148.212 19.2381C148.413 19.6326 148.989 20.7895 148.852 20.8967C148.388 20.7658 147.862 19.9254 147.516 19.7174C147.535 19.5113 147.499 19.388 147.454 19.4477L147.213 19.7293C147.13 19.787 147.065 19.8668 147.025 19.9598C146.407 20.6361 145.587 21.0909 144.689 21.2548C144.57 21.2859 144.446 21.2911 144.325 21.2703C144.203 21.2494 144.088 21.2028 143.986 21.1337C143.845 20.9661 143.748 20.7659 143.702 20.551C143.657 20.3361 143.665 20.1131 143.727 19.9022C144.032 20.0438 144.372 20.0947 144.706 20.0488C144.778 20.0437 144.849 20.0288 144.916 20.0044C145.285 19.8534 145.608 19.608 145.853 19.2926C146.098 18.9772 146.257 18.6028 146.314 18.2066C146.371 17.9447 146.38 17.6745 146.34 17.4094C146.332 17.3162 146.317 17.2239 146.294 17.1333C146.262 17.0111 146.202 16.8983 146.118 16.8044C146.034 16.7104 145.929 16.6379 145.812 16.5928C145.643 16.5213 145.456 16.504 145.277 16.5432C144.135 16.6934 142.457 18.609 142.697 20.3905C142.701 20.6564 142.773 20.9167 142.906 21.1462C143.039 21.3757 143.229 21.5666 143.457 21.7004C143.907 21.9744 144.434 22.0934 144.958 22.0394C145.89 21.8503 146.711 21.3003 147.244 20.5079C147.715 21.0872 148.774 21.8251 149.345 21.75C149.431 21.749 149.517 21.7409 149.601 21.7258C149.955 21.6786 150.081 21.5144 150.015 21.0285C149.882 20.4656 149.705 19.9144 149.485 19.38C149.261 18.9046 149.065 18.4166 148.898 17.9182C148.581 17.0493 148.765 16.6105 149.022 16.5783ZM145.535 17.3588C145.69 17.5731 144.867 18.6484 144.727 18.7874C144.587 18.9263 144.285 19.2742 143.978 19.1657C144.314 18.2773 145.394 17.1619 145.535 17.3588ZM105.855 21.2718C105.492 20.9833 105.087 20.7518 104.656 20.5849C105.038 20.1491 105.328 19.6391 105.508 19.0863C105.687 18.5336 105.753 17.9499 105.7 17.3711C105.454 15.4851 104.336 14.9497 103.146 15.1113C101.215 15.3723 99.0027 17.3984 99.4441 18.4629C99.5296 18.6766 99.6778 18.8588 99.8691 18.9851C100.06 19.1114 100.285 19.1759 100.514 19.1697C100.609 19.1556 100.699 19.1205 100.778 19.067C100.857 19.0135 100.923 18.9428 100.972 18.8603C101.628 17.8538 102.62 17.1171 103.769 16.7844C103.986 16.7565 104.123 16.8172 104.142 16.9549C104.388 17.5535 102.434 20.4751 100.801 21.1315C99.9718 21.5105 99.7281 21.6558 99.7999 22.1663C99.8463 22.5224 100.129 22.8125 100.669 22.9825C100.871 23.1035 101.109 23.1483 101.341 23.1087C102.032 23.0207 102.622 22.3077 103.506 22.1898C103.811 22.1424 104.122 22.1713 104.412 22.2736C104.613 22.3153 104.798 22.415 104.944 22.5605C105.089 22.706 105.19 22.8912 105.233 23.0934C105.377 24.1943 103.638 25.9124 101.821 26.1519C101.293 26.2554 100.746 26.2047 100.246 26.006C100.034 25.8758 99.7908 25.8063 99.5423 25.8049C99.5003 25.8078 99.4596 25.82 99.4229 25.8407C99.3862 25.8613 99.3545 25.8899 99.3301 25.9243C99.3056 25.9587 99.2891 25.9982 99.2815 26.0398C99.274 26.0814 99.2757 26.1242 99.2865 26.165C99.3506 26.4376 99.4701 26.6938 99.6377 26.9172C99.8978 27.4531 101.554 27.8384 102.648 27.6839C104.811 27.3965 107.198 26.0583 106.877 23.6135C106.801 22.7406 106.442 21.9175 105.855 21.2718ZM143.688 16.9719C143.239 17.0262 142.921 17.1166 142.428 17.2069C142.089 17.2635 141.843 17.3447 141.521 17.3948C141.676 16.7455 141.849 16.0818 141.948 15.7871C142.103 15.2257 142.386 14.2283 142.526 13.6576C142.549 13.4118 142.118 13.004 141.788 13.0534L141.648 13.1044C141.411 13.4864 141.25 13.9117 141.175 14.356L140.635 16.1612C140.45 16.8638 140.416 17.0606 140.27 17.6068C139.451 17.8827 139.183 17.77 139.266 18.4174C139.306 18.677 139.382 18.796 139.671 18.7588C139.799 18.7261 139.928 18.7033 140.059 18.6908C139.854 19.4857 139.734 20.3001 139.699 21.1204C139.21 21.5354 138.641 21.8423 138.027 22.0211C137.375 22.1126 137.725 19.962 137.941 19.0064C138.018 18.6056 138.097 18.525 137.873 18.2004C137.786 18.0813 137.671 17.9861 137.538 17.9235C137.405 17.8609 137.258 17.8328 137.112 17.842C136.818 17.9267 136.528 18.7396 136.352 19.0111C136.176 19.2827 135.807 19.9282 135.574 20.2984C134.454 21.93 134.121 22.5229 134.039 22.5552C133.759 22.6573 133.984 21.6065 134.067 21.1344C134.587 19.1274 134.925 18.7349 134.878 18.3788C134.812 18.1436 134.666 17.9392 134.465 17.801C134.265 17.6627 134.023 17.5992 133.781 17.6214C133.437 17.8214 133.029 20.3425 132.953 20.9912C132.887 21.3737 132.851 21.7607 132.845 22.1488L132.802 22.1848C132.51 22.4296 131.975 22.9718 131.525 23.034C131.074 23.0962 130.897 22.608 130.821 22.0572C130.777 21.5814 130.784 21.1022 130.842 20.6278C130.905 20.2905 130.937 19.9481 130.937 19.605C130.872 19.4361 130.759 19.2905 130.611 19.1871C130.464 19.0836 130.289 19.027 130.109 19.0245C129.755 19.0717 129.067 19.7277 128.778 20.1087C128.147 20.9139 127.995 21.0997 127.451 21.833C127.706 20.7931 127.923 19.5657 127.981 19.3711C128.038 19.1765 128.025 18.8954 127.479 18.7009C126.933 18.5064 126.868 18.5243 126.804 19.1262C126.591 20.8257 126.377 22.0214 126.259 22.7782C125.826 23.1698 124.832 24.1253 124.158 23.855C123.914 23.7524 123.879 23.4452 123.864 23.3479C123.817 22.321 123.987 21.2954 124.365 20.3396C124.451 20.0997 124.406 19.8956 123.808 19.8402C123.461 19.8081 123.323 19.8433 123.177 20.3895C122.992 21.1074 122.866 21.8392 122.8 22.5776C122.78 22.847 122.798 23.1177 122.852 23.3821C122.344 23.8069 121.47 24.5016 120.859 24.325C120.549 24.2403 120.507 23.1568 120.461 21.4174C120.394 21.1819 120.248 20.9768 120.049 20.8362C119.85 20.6955 119.608 20.6278 119.365 20.6442C119.027 20.6928 118.217 21.9851 117.64 23.0672C117.584 22.3824 117.575 21.7098 117.5 21.407C117.425 21.1041 117.125 20.5725 116.66 20.5295C116.196 20.4865 115.593 21.3343 115.303 21.7232C114.792 22.3951 114.345 23.1141 113.968 23.8706C114.178 22.9784 114.459 21.9169 114.546 21.2293C114.574 20.928 114.591 20.7457 114.053 20.5598C113.514 20.374 113.571 20.3553 113.302 21.5459C112.951 22.9662 112.711 24.4118 112.584 25.8695C112.649 26.3713 113.151 26.6018 113.714 26.526C113.756 26.5204 113.795 26.502 113.826 26.4735C113.857 26.4449 113.879 26.4074 113.888 26.3661C114.254 25.4032 114.726 24.4841 115.293 23.6255C115.714 22.9375 116.191 22.2863 116.72 21.6786C116.713 22.5335 116.65 23.3833 116.632 23.6616C116.592 23.9971 116.577 24.3351 116.586 24.6729C116.599 24.8163 116.65 24.9534 116.735 25.0697C116.819 25.1859 116.933 25.2769 117.065 25.333C117.183 25.3792 117.311 25.3911 117.435 25.3673C117.934 25.2935 118.556 23.5519 119.405 22.1912C119.244 23.9275 119.602 24.6084 120.132 24.9694C120.557 25.1907 121.047 25.253 121.514 25.1453C122.137 24.8785 122.653 24.408 122.979 23.8097C123.119 24.1521 123.378 24.4314 123.708 24.5957C124.037 24.7601 124.415 24.7984 124.771 24.7034C125.38 24.4585 125.885 24.0076 126.199 23.4283C126.185 23.5095 126.178 23.5917 126.176 23.6741C126.209 23.8595 126.306 24.0272 126.45 24.1473C126.509 24.2154 126.581 24.2697 126.663 24.3063C126.745 24.3428 126.833 24.3609 126.923 24.359C127.22 24.3225 127.433 23.9104 127.603 23.6223C127.772 23.3341 128.284 22.6138 128.591 22.2105C128.672 22.114 129.608 20.7533 129.857 20.5445C129.618 21.479 129.73 22.4688 130.171 23.3245C130.348 23.5073 130.564 23.6469 130.802 23.7328C131.041 23.8186 131.295 23.8484 131.547 23.8198C131.686 23.7992 131.823 23.7636 131.954 23.7135C132.363 23.5348 132.711 23.2388 132.954 22.8626C132.997 23.1128 133.126 23.3397 133.318 23.5037C133.511 23.6677 133.754 23.7583 134.007 23.7597C134.739 23.7396 135.791 21.638 136.695 20.4582C136.566 22.4455 137.573 23.0665 138.465 22.8613C138.989 22.6649 139.436 22.302 139.737 21.8276C139.743 21.9822 139.79 22.1325 139.871 22.2638C139.932 22.3675 140.019 22.4526 140.125 22.5102C140.23 22.5678 140.348 22.5957 140.468 22.591C140.549 22.5974 140.629 22.5744 140.695 22.5262C140.761 22.4781 140.807 22.4078 140.826 22.3283C140.837 22.2014 140.747 22.0651 140.739 21.8964C140.75 21.4369 140.793 20.9786 140.866 20.5248C140.972 19.8449 141.119 19.1722 141.306 18.5105C141.708 18.3718 142.123 18.2663 142.573 18.124C143.328 17.8581 144.276 16.8903 143.688 16.9719ZM95.423 26.8946C95.2292 27.0259 95.0457 27.172 94.8742 27.3316C94.5744 27.5677 94.0469 28.1186 93.5965 28.1808C93.146 28.2431 92.9688 27.7548 92.8928 27.204C92.8472 26.7257 92.8572 26.2436 92.9226 25.7674C92.9725 25.4277 92.991 25.0841 92.978 24.741C92.9134 24.572 92.8001 24.4265 92.6526 24.3231C92.5051 24.2196 92.3301 24.163 92.1503 24.1605C91.7965 24.2077 91.1162 24.8644 90.8268 25.2454C90.1956 26.0586 90.0434 26.2444 89.4997 26.9697C89.7549 25.9298 89.9718 24.7024 90.0288 24.5157C90.0858 24.3291 90.0736 24.0321 89.5271 23.8455C88.9805 23.659 88.9168 23.6611 88.8452 24.2622C88.6183 26.1123 88.392 27.3549 88.2843 28.0886C87.8552 28.5678 87.317 28.9351 86.716 29.1588C86.3034 29.2405 86.1522 28.9866 86.1058 28.6304C86.0896 27.4924 86.2968 26.3621 86.7157 25.3044C86.8 25.0803 86.6058 24.8624 86.2824 24.7524C86.1143 24.6809 85.6837 24.5291 85.5261 24.8583C84.5636 24.3613 83.5237 25.1286 82.8628 26.091C82.1686 26.9735 81.788 28.0644 81.7816 29.1895C81.5727 29.4147 81.321 29.5954 81.0415 29.7206C80.9873 29.7438 80.9297 29.7573 80.871 29.7608C80.5809 29.8059 80.4561 29.6104 80.4033 29.2377C80.2877 28.4273 80.5861 27.2635 80.4237 26.6167C80.3302 26.1682 79.6036 25.5252 79.1932 25.5831C78.389 25.6925 77.3924 27.1915 76.7116 28.7118C76.5857 27.7565 77.9055 22.4251 78.4737 21.0064C78.6144 20.6934 78.6865 20.3537 78.6851 20.0104C78.6375 19.8554 78.5329 19.7247 78.3927 19.6448C78.2525 19.5649 78.0873 19.542 77.9307 19.5806C77.3356 19.6615 76.4536 23.61 75.9647 25.7158C75.9507 25.8665 75.939 25.9933 75.8707 26.131C75.524 26.1868 75.2231 26.2629 74.8034 26.336C74.3837 26.409 74.2181 26.4817 73.8966 26.5238C74.0599 25.8753 74.2326 25.2115 74.3191 24.9637C74.475 24.3944 74.7652 23.4057 74.9061 22.827C74.9281 22.5891 74.4902 22.1727 74.12 22.2264C74.0703 22.233 74.0226 22.2505 73.9802 22.2774C73.7505 22.6604 73.5905 23.0816 73.5077 23.5211L73.0833 25.273C72.8991 25.9756 72.8564 26.1796 72.7184 26.7266C71.8994 26.9946 71.6312 26.8897 71.7141 27.5372C71.7465 27.788 71.8299 27.9157 72.12 27.8706C72.246 27.8823 72.4202 27.8025 72.4996 27.8018C72.2423 28.7796 72.1221 29.7886 72.1425 30.7995C72.1389 31.0005 72.1952 31.198 72.3044 31.3662C72.3636 31.4719 72.4506 31.559 72.5558 31.6182C72.661 31.6773 72.7803 31.7061 72.9008 31.7014C73.074 31.7174 73.2447 31.5893 73.2586 31.4386C73.2178 31.2974 73.1886 31.1529 73.1716 31.0068C73.1792 30.5443 73.222 30.0831 73.2994 29.6272C73.3804 28.9575 73.5003 28.293 73.6584 27.6373C74.0683 27.4993 74.4752 27.3931 74.933 27.2516C75.2358 27.1481 75.5188 26.9931 75.7696 26.7933C75.4771 27.9828 75.3634 29.2095 75.4325 30.4325C75.4521 30.5399 75.4934 30.6421 75.5539 30.7326C75.6145 30.8232 75.6928 30.9002 75.7842 30.959C75.8756 31.0177 75.9781 31.0568 76.0852 31.074C76.1923 31.0911 76.3018 31.0859 76.4069 31.0586C76.4626 31.0522 76.5173 31.0385 76.5695 31.0177C76.8969 30.912 77.0102 30.5467 77.2282 30.0791C77.7048 28.8596 78.3786 27.7277 79.2221 26.7293C79.1621 27.5836 79.1596 28.441 79.2146 29.2955C79.2337 29.4973 79.2928 29.6931 79.3885 29.8713C79.4841 30.0495 79.6144 30.2065 79.7716 30.3329C79.9288 30.4594 80.1096 30.5527 80.3034 30.6074C80.4972 30.662 80.7 30.6769 80.8997 30.6511C81.0087 30.6448 81.1158 30.6195 81.2163 30.5765C81.571 30.4042 81.8709 30.1357 82.0823 29.8011C82.189 29.9136 82.3199 30 82.465 30.0537C82.61 30.1073 82.7654 30.1267 82.9192 30.1105C83.4849 30.0909 84.2378 29.5929 85.107 28.354C85.3612 29.553 86.1759 30.1883 87.0943 29.9615C87.597 29.7642 88.0123 29.391 88.2638 28.9103C88.3108 29.0587 88.3974 29.1912 88.5142 29.2934C88.5706 29.3621 88.6416 29.4173 88.7218 29.4552C88.8021 29.493 88.8896 29.5125 88.9783 29.5123C89.2841 29.4686 89.4963 29.0645 89.658 28.7756C89.8198 28.4867 90.347 27.7679 90.6472 27.3559C90.7347 27.268 91.6708 25.9073 91.9212 25.6906C91.6801 26.6275 91.7918 27.6205 92.2347 28.4785C92.4613 28.7121 92.7514 28.8729 93.0687 28.9407C93.3861 29.0085 93.7163 28.9803 94.018 28.8596C94.4765 28.6332 94.8505 28.264 95.0843 27.8069C95.4412 27.3841 95.5592 26.7953 95.4244 26.8788L95.423 26.8946ZM82.823 29.0061C83.2646 27.2397 84.6448 25.4564 85.1516 25.8152C85.2676 26.7056 82.6451 30.0691 82.8245 28.9902L82.823 29.0061Z" fill="#F7E18C"/>
</svg>
