<svg width="32" height="32" viewBox="0 0 32 32" fill="none" xmlns="http://www.w3.org/2000/svg">
<path d="M23.2151 16.7036V4.60362H18.3582V3.50362H15.9911V1.83325H10.7261V3.50362H8.35891V4.60362H3.72656V26.9703H16.1951C17.3583 29.4555 19.8684 31.1666 22.7865 31.1666C26.7863 31.1666 30.0514 27.9277 30.0514 23.9147C30.0309 20.0851 27.0107 16.9277 23.2151 16.7036ZM9.58332 5.82584H9.62413V4.72584H11.9505V3.05547H14.7666V4.72584H17.1338V6.78325H9.58332V5.82584ZM15.7462 25.7481H4.95097V5.82584H8.35891V8.00547H18.3582V5.82584H21.9703V16.724C18.3378 17.111 15.5013 20.187 15.5013 23.9147C15.5217 24.5462 15.6033 25.1573 15.7462 25.7481ZM22.7661 29.9444C19.4398 29.9444 16.7257 27.2351 16.7257 23.9147C16.7257 20.5944 19.4398 17.8851 22.7661 17.8851C26.0924 17.8851 28.8065 20.5944 28.8065 23.9147C28.8065 27.2351 26.0924 29.9444 22.7661 29.9444ZM23.4804 21.2055H22.2559V23.4258H20.0112V24.6481H22.2355V26.8888H23.46V24.6481H25.6843V23.4258H23.4804V21.2055ZM18.5215 11.3258H8.58338V12.5481H18.5011V11.3258H18.5215ZM8.58338 21.8777H14.2973V20.6555H8.58338V21.8777ZM18.5215 15.9907H8.58338V17.2129H18.5011V15.9907H18.5215Z" fill="#07729C"/>
</svg>
