<svg width="32" height="32" viewBox="0 0 32 32" fill="none" xmlns="http://www.w3.org/2000/svg">
<path d="M11.3003 25.0605C9.87021 25.0605 8.69627 26.2297 8.69627 27.6541C8.69627 29.0784 9.87021 30.2477 11.3003 30.2477C12.7303 30.2477 13.9043 29.0784 13.9043 27.6541C13.9043 26.2297 12.7303 25.0605 11.3003 25.0605ZM11.3003 28.9509C10.5746 28.9509 9.97693 28.3556 9.97693 27.6328C9.97693 26.91 10.5746 26.3148 11.3003 26.3148C12.026 26.3148 12.6236 26.91 12.6236 27.6328C12.6236 28.3556 12.026 28.9509 11.3003 28.9509ZM22.7835 6.48019H21.5029V8.79741H19.1763V10.0729H21.5029V12.3902H22.7835V10.0729H25.1101V8.79741H22.7835V6.48019ZM22.0792 1.80322C17.9811 1.80322 14.63 5.14087 14.63 9.22259C14.63 13.3043 17.9811 16.642 22.0792 16.642C22.2499 16.642 22.3993 16.642 22.5701 16.6207L21.2254 22.0417H9.55004L6.39108 7.88328C6.32704 7.58565 6.07091 7.37306 5.77209 7.37306H1.99414V8.6486H5.25983L8.41879 22.807C8.48282 23.1047 8.73895 23.3173 9.03778 23.3173H21.7377C22.0365 23.3173 22.2926 23.1259 22.3566 22.8283L23.9575 16.4081C27.1591 15.579 29.5497 12.6665 29.5497 9.22259C29.5284 5.14087 26.1986 1.80322 22.0792 1.80322ZM22.0792 15.3664C18.6854 15.3664 15.9107 12.6028 15.9107 9.22259C15.9107 5.84242 18.6854 3.07876 22.0792 3.07876C25.4943 3.07876 28.2477 5.84242 28.2477 9.22259C28.2477 12.6028 25.4943 15.3664 22.0792 15.3664ZM19.0269 25.0605C17.5969 25.0605 16.4229 26.2297 16.4229 27.6541C16.4229 29.0784 17.5969 30.2477 19.0269 30.2477C20.457 30.2477 21.6309 29.0784 21.6309 27.6541C21.6309 26.2297 20.457 25.0605 19.0269 25.0605ZM19.0269 28.9509C18.3012 28.9509 17.7036 28.3556 17.7036 27.6328C17.7036 26.91 18.3012 26.3148 19.0269 26.3148C19.7526 26.3148 20.3503 26.91 20.3503 27.6328C20.3503 28.3556 19.7526 28.9509 19.0269 28.9509Z" fill="#07729C"/>
</svg>
