<svg width="32" height="32" viewBox="0 0 32 32" fill="none" xmlns="http://www.w3.org/2000/svg">
<path d="M13.9727 8.575H7.67028V9.78569H13.9727V8.575ZM13.9727 12.6568H7.67028V13.8675H13.9727V12.6568ZM16.5182 13.0546L15.9564 13.8329C16.5533 14.2998 17.2555 14.5939 18.0104 14.6803V15.5278H18.7653V14.6803C19.8713 14.5939 20.6086 13.9539 20.6086 13.02C20.6086 12.1033 20.0468 11.5671 18.7302 11.2558V9.63003C19.134 9.71651 19.5202 9.88947 19.9064 10.1835L20.398 9.38789C19.924 9.04198 19.3973 8.81714 18.7653 8.73066V8.21179H18.0104V8.71337C16.922 8.79984 16.1847 9.43978 16.1847 10.3564C16.1847 11.325 16.7815 11.792 18.0455 12.1206V13.7983C17.4662 13.7118 17.0098 13.4524 16.5182 13.0546ZM18.7302 12.2763C19.4149 12.4665 19.5904 12.7086 19.5904 13.0892C19.5904 13.5042 19.2744 13.781 18.7302 13.8329V12.2763ZM17.2029 10.2873C17.2029 9.90676 17.4838 9.61274 18.028 9.56085V11.0656C17.3609 10.8753 17.2029 10.6505 17.2029 10.2873ZM24.2601 24.02C23.3648 24.02 22.7855 24.7118 22.7855 25.542V25.5593C22.7855 26.3895 23.3824 27.064 24.2601 27.064C25.1379 27.064 25.7348 26.3722 25.7348 25.542V25.5247C25.7348 24.6945 25.1555 24.02 24.2601 24.02ZM24.7341 25.542C24.7341 25.8879 24.541 26.1646 24.2601 26.1646C23.9968 26.1646 23.7862 25.8879 23.7862 25.542V25.5247C23.7862 25.1615 23.9617 24.902 24.2601 24.902C24.541 24.902 24.7341 25.1788 24.7341 25.542ZM24.9799 17.6552V2.64261C24.9799 2.17563 24.5937 1.77783 24.1021 1.77783H3.54476C3.07077 1.77783 2.66699 2.15834 2.66699 2.64261V27.4272C2.66699 27.8942 3.05321 28.292 3.54476 28.292H16.5358C17.8349 30.0042 19.9064 31.1112 22.2237 31.1112C26.1386 31.1112 29.3337 27.9807 29.3337 24.1064C29.3337 21.2181 27.543 18.7275 24.9799 17.6552ZM3.89587 27.0813V2.98852H23.7686V17.2747C23.277 17.1709 22.7679 17.1017 22.2413 17.1017C19.3446 17.1017 16.8518 18.814 15.7458 21.27H7.67028V22.4807H15.3244C15.2016 22.9995 15.1313 23.553 15.1313 24.1064C15.1313 25.1788 15.3771 26.1819 15.816 27.0813H3.89587ZM22.2237 29.9005C18.976 29.9005 16.3427 27.3061 16.3427 24.1064C16.3427 20.9068 18.976 18.3124 22.2237 18.3124C25.4715 18.3124 28.1048 20.9068 28.1048 24.1064C28.1048 27.3061 25.4715 29.9005 22.2237 29.9005ZM21.9077 22.7747C21.9077 21.9445 21.3284 21.2527 20.4331 21.2527C19.5377 21.2527 18.9584 21.9445 18.9584 22.7747V22.792C18.9584 23.6222 19.5553 24.2967 20.4331 24.2967C21.3108 24.2967 21.9077 23.6049 21.9077 22.7747ZM19.9591 22.7747C19.9591 22.4115 20.1522 22.1347 20.4331 22.1347C20.714 22.1347 20.9071 22.4115 20.9071 22.7574V22.7747C20.9071 23.1206 20.714 23.3973 20.4331 23.3973C20.1697 23.4146 19.9591 23.1379 19.9591 22.7747ZM23.9968 21.3392L19.5904 26.9775H20.6964L25.1028 21.3392H23.9968ZM16.1495 16.9288H7.67028V18.1395H16.1495V16.9288Z" fill="#07729C"/>
</svg>
