<svg width="36" height="36" viewBox="0 0 36 36" fill="none" xmlns="http://www.w3.org/2000/svg">
<path d="M17.871 10.1834H11.2535V11.4629H17.871V10.1834ZM17.871 14.4971H11.2535V15.7765H17.871V14.4971ZM20.5438 14.9175L19.9539 15.74C20.5806 16.2335 21.318 16.5442 22.1106 16.6356V17.5312H22.9032V16.6356C24.0645 16.5442 24.8387 15.8679 24.8387 14.8809C24.8387 13.9121 24.2488 13.3455 22.8664 13.0165V11.2983C23.2903 11.3897 23.6959 11.5725 24.1014 11.8833L24.6175 11.0425C24.1198 10.6769 23.5668 10.4393 22.9032 10.3479V9.79953H22.1106V10.3296C20.9677 10.421 20.1935 11.0973 20.1935 12.066C20.1935 13.0896 20.8203 13.5831 22.1475 13.9304V15.7034C21.5392 15.612 21.0599 15.3379 20.5438 14.9175ZM22.8664 14.0949C23.5853 14.296 23.7696 14.5519 23.7696 14.954C23.7696 15.3927 23.4378 15.6851 22.8664 15.74V14.0949ZM21.2627 11.9929C21.2627 11.5908 21.5576 11.2801 22.129 11.2252V12.8154C21.4286 12.6144 21.2627 12.3768 21.2627 11.9929ZM28.6728 26.5059C27.7327 26.5059 27.1244 27.237 27.1244 28.1144V28.1327C27.1244 29.01 27.7512 29.7229 28.6728 29.7229C29.5945 29.7229 30.2212 28.9917 30.2212 28.1144V28.0961C30.2212 27.2187 29.6129 26.5059 28.6728 26.5059ZM29.1705 28.1144C29.1705 28.48 28.9677 28.7724 28.6728 28.7724C28.3963 28.7724 28.1751 28.48 28.1751 28.1144V28.0961C28.1751 27.7123 28.3594 27.4381 28.6728 27.4381C28.9677 27.4381 29.1705 27.7305 29.1705 28.1144ZM29.4286 19.7795V3.91392C29.4286 3.4204 29.023 3 28.5069 3H6.92166C6.42396 3 6 3.40212 6 3.91392V30.1067C6 30.6002 6.40553 31.0206 6.92166 31.0206H20.5622C21.9263 32.8302 24.1014 34 26.5346 34C30.6452 34 34 30.6916 34 26.5973C34 23.5448 32.1198 20.9127 29.4286 19.7795ZM7.29032 29.7412V4.27948H28.1567V19.3774C27.6406 19.2677 27.106 19.1946 26.553 19.1946C23.5115 19.1946 20.894 21.0041 19.7327 23.5996H11.2535V24.8791H19.2903C19.1613 25.4275 19.0876 26.0124 19.0876 26.5973C19.0876 27.7305 19.3456 28.7907 19.8065 29.7412H7.29032ZM26.5346 32.7205C23.1244 32.7205 20.3594 29.9788 20.3594 26.5973C20.3594 23.2158 23.1244 20.4741 26.5346 20.4741C29.9447 20.4741 32.7097 23.2158 32.7097 26.5973C32.7097 29.9788 29.9447 32.7205 26.5346 32.7205ZM26.2028 25.1899C26.2028 24.3125 25.5945 23.5814 24.6544 23.5814C23.7143 23.5814 23.106 24.3125 23.106 25.1899V25.2081C23.106 26.0855 23.7327 26.7983 24.6544 26.7983C25.576 26.7983 26.2028 26.0672 26.2028 25.1899ZM24.1567 25.1899C24.1567 24.806 24.3594 24.5136 24.6544 24.5136C24.9493 24.5136 25.1521 24.806 25.1521 25.1716V25.1899C25.1521 25.5554 24.9493 25.8479 24.6544 25.8479C24.3779 25.8662 24.1567 25.5737 24.1567 25.1899ZM28.3963 23.6728L23.7696 29.6315H24.9309L29.5576 23.6728H28.3963ZM20.1567 19.0118H11.2535V20.2913H20.1567V19.0118Z" fill="#07729C"/>
</svg>
