<svg width="32" height="32" viewBox="0 0 32 32" fill="none" xmlns="http://www.w3.org/2000/svg">
<path d="M20.1922 11.27H12.4878V12.3953H20.1731V11.27H20.1922ZM10.7863 13.4831C10.4995 13.3518 10.1554 13.4643 10.0216 13.7456L9.08485 15.6212L8.66426 15.096C8.47308 14.8522 8.10985 14.7959 7.86132 15.0022C7.61279 15.2085 7.55544 15.5461 7.76573 15.79L8.74073 17.0278C8.85544 17.1591 9.02749 17.2528 9.19955 17.2528C9.21867 17.2528 9.23779 17.2528 9.25691 17.2528C9.44808 17.2341 9.62014 17.1216 9.71573 16.934L11.0731 14.252C11.1878 13.952 11.0731 13.6144 10.7863 13.4831ZM10.7863 17.7217C10.4995 17.5904 10.1554 17.703 10.0216 17.9843L9.08485 19.8598L8.66426 19.3347C8.47308 19.0909 8.10985 19.0346 7.86132 19.2409C7.61279 19.4284 7.55544 19.7848 7.76573 20.0286L8.74073 21.2664C8.85544 21.3977 9.02749 21.4915 9.19955 21.4915C9.21867 21.4915 9.23779 21.4915 9.25691 21.4915C9.44808 21.4727 9.62014 21.3602 9.71573 21.1727L11.0731 18.4907C11.1878 18.1906 11.0731 17.853 10.7863 17.7217ZM10.7863 9.22567C10.4995 9.09438 10.1554 9.20691 10.0216 9.48824L9.08485 11.3637L8.66426 10.8386C8.47308 10.5948 8.10985 10.5385 7.86132 10.7448C7.61279 10.9324 7.55544 11.2887 7.76573 11.5325L8.74073 12.7704C8.85544 12.9017 9.02749 12.9954 9.19955 12.9954C9.21867 12.9954 9.23779 12.9954 9.25691 12.9954C9.44808 12.9767 9.62014 12.8642 9.71573 12.6766L11.0731 9.99463C11.1878 9.7133 11.0731 9.37571 10.7863 9.22567ZM29.8657 9.00061L27.9922 7.70651C27.7819 7.55646 27.5333 7.48144 27.2848 7.48144C27.2083 7.48144 27.151 7.48144 27.0745 7.5002C26.7495 7.55647 26.4627 7.72526 26.2716 8.00659L24.4363 10.5198V3.95549C24.4363 3.8242 24.3216 3.71167 24.1878 3.71167H4.85986C4.72603 3.71167 4.61133 3.8242 4.61133 3.95549V27.1555C4.61133 27.2868 4.72603 27.3994 4.85986 27.3994H24.1878C24.3216 27.3994 24.4363 27.2868 24.4363 27.1555V18.5657L30.1716 10.7073C30.5539 10.1447 30.4201 9.39446 29.8657 9.00061ZM23.2701 26.2553H5.75838V4.83698H23.2701V12.0764L20.1922 16.2963V15.3586H12.4878V16.4839H20.0392L17.8598 19.466H12.4878V20.5913H17.2481L16.9613 22.9356C16.9039 23.3858 17.1142 23.8171 17.4775 24.0797C17.6878 24.2297 17.9363 24.3048 18.1848 24.3048C18.376 24.3048 18.5672 24.2673 18.7392 24.1735L20.9186 23.1044C21.1098 23.0107 21.2628 22.8794 21.3775 22.7106L23.2701 20.1224V26.2553V26.2553ZM20.3642 22.0166L18.2422 22.9356L18.4716 20.7038L25.7363 10.7636L27.6098 12.0577L20.3642 22.0166ZM28.3554 11.0824L26.4819 9.78832L27.2848 8.70053L29.1583 9.99463L28.3554 11.0824Z" fill="#07729C"/>
</svg>
