<svg width="36" height="36" viewBox="0 0 36 36" fill="none" xmlns="http://www.w3.org/2000/svg">
<path d="M18.2944 7.74138C18.1472 7.6681 18 7.6681 17.8528 7.74138L7.329 12.2845L7.4026 12.5043C7.329 12.5776 7.25541 12.7241 7.25541 12.7974V24.5216C7.25541 24.7414 7.4026 24.9612 7.54978 25.0345L17.5584 29.7241C17.632 29.7241 17.7056 29.7974 17.7792 29.7974C17.8528 29.7974 17.9264 29.7974 18 29.7241L28.2294 25.0345C28.4502 24.9612 28.5238 24.7414 28.5238 24.5216V12.5043C28.5238 12.431 28.5238 12.3578 28.4502 12.3578L28.5238 12.0647L18.2944 7.74138ZM18.0736 8.84052L21.4589 10.2328L12.4805 14.3362L9.02165 12.7241L18.0736 8.84052ZM17.1169 28.2586L8.4329 24.1552V13.6767L17.3377 17.8534L17.1169 28.2586ZM17.8528 16.9009L13.8052 14.9957L22.8571 10.819L26.8312 12.5043L17.8528 16.9009ZM27.5671 24.1552L18.2944 28.4052L18.4416 17.8534L27.5671 13.3836V24.1552ZM25.7273 21.2974L23.0043 22.5431V23.7888L25.7273 22.5431V21.2974ZM33.8961 22.3966C32.645 26.5733 29.5541 29.0647 29.4805 29.0647C26.4632 32.1422 22.4156 33.8276 18.0736 33.8276C9.24242 33.8276 2.1039 26.7198 2.1039 17.9267C2.1039 9.13362 9.24242 2.09914 18.0736 2.09914C22.4892 2.09914 26.7576 3.93103 29.7749 7.15517L25.8009 7.30172V8.40086L31.1732 8.18103C31.4675 8.18103 31.6883 7.96121 31.6883 7.6681L31.7619 2.31897H30.658L30.5844 6.49569C27.4199 2.97845 22.8571 1 18.0736 1C8.65368 1 1 8.62069 1 18C1 27.3793 8.65368 35 18.0736 35C22.71 35 27.0519 33.1681 30.2165 29.944C30.3636 29.8707 33.6017 27.2328 35 22.7629L33.8961 22.3966Z" fill="#07729C"/>
</svg>
