<svg width="32" height="32" viewBox="0 0 32 32" fill="none" xmlns="http://www.w3.org/2000/svg">
<path d="M8.74217 16.1276H12.1192V12.7422H8.74217V16.1276ZM9.9 13.9085H10.9613V14.9776H9.9V13.9085ZM25.3216 17.6341V3.50907C25.3216 3.03931 24.9518 2.66675 24.5176 2.66675H6.13706C5.68679 2.66675 5.33301 3.03931 5.33301 3.50907V27.4503C5.33301 27.9201 5.70287 28.2927 6.13706 28.2927H18.9053C20.1275 30.0097 22.1215 31.1112 24.3729 31.1112C28.0715 31.1112 31.1108 28.0659 31.1108 24.324C31.1108 20.9386 28.57 18.0877 25.3216 17.6341ZM6.47476 27.1264V3.86543H24.1477V17.5693C23.408 17.5855 22.7004 17.7313 22.0411 17.9743V17.0024H18.6641V20.404H18.8732C18.0852 21.5055 17.6189 22.8662 17.6189 24.3564C17.6189 25.3446 17.8279 26.3003 18.2139 27.1588H6.47476V27.1264ZM20.8994 18.1686V18.525C20.5134 18.7518 20.1597 19.0272 19.838 19.3187V18.1686H20.8994ZM24.3729 29.9449C21.3014 29.9449 18.7928 27.4179 18.7928 24.324C18.7928 21.2301 21.3014 18.7032 24.3729 18.7032C27.4443 18.7032 29.953 21.2301 29.953 24.324C29.953 27.4179 27.4443 29.9449 24.3729 29.9449ZM18.6802 16.1276H22.0572V12.7422H18.6802V16.1276ZM19.838 13.9085H20.8994V14.9776H19.838V13.9085ZM17.0882 12.7422H13.7112V16.1438H17.0882V12.7422ZM15.9304 14.9614H14.869V13.8923H15.9304V14.9614ZM22.0572 6.42478H8.74217V10.6688H22.0572V6.42478ZM20.8994 9.48629H9.9V7.57487H20.8994V9.48629ZM8.74217 20.404H12.1192V17.0024H8.74217V20.404ZM9.9 18.1686H10.9613V19.2377H9.9V18.1686ZM13.7112 24.6642H17.1525V21.2625H13.7112V24.6642ZM14.869 22.4288H15.9947V23.4979H14.869V22.4288ZM23.8904 25.6199L21.6713 23.7085L20.9155 24.5994L24.0191 27.2884L27.8785 22.5908L26.9941 21.8457L23.8904 25.6199ZM13.7112 20.404H17.0882V17.0024H13.7112V20.404ZM14.869 18.1686H15.9304V19.2377H14.869V18.1686ZM8.74217 24.6642H12.1192V21.2625H8.74217V24.6642ZM9.9 22.4288H10.9613V23.4979H9.9V22.4288Z" fill="#07729C"/>
</svg>
