<svg width="32" height="32" viewBox="0 0 32 32" fill="none" xmlns="http://www.w3.org/2000/svg">
<path d="M21.6138 21.6723H8.89949V22.9388H21.631V21.6723H21.6138ZM21.6138 17.0813H8.89949V18.3478H21.631V17.0813H21.6138ZM15.2395 12.5782H8.86522V13.8447H15.2395V12.5782ZM15.2395 8.30378H8.86522V9.57027H15.2395V8.30378ZM25.4864 1.77783H4.7185C4.58142 1.77783 4.44434 1.90096 4.44434 2.05927V28.1631C4.44434 28.3038 4.56428 28.4445 4.7185 28.4445H25.5035C25.6406 28.4445 25.7777 28.3214 25.7777 28.1631V2.04168C25.7605 1.90096 25.6235 1.77783 25.4864 1.77783ZM24.5097 27.1428H5.67807V3.04432H24.5097V27.1428ZM17.964 12.0505L17.45 12.8069C17.9983 13.2466 18.6494 13.5456 19.3348 13.6336V14.4603H20.0374V13.6336C21.0655 13.5456 21.7509 12.93 21.7509 12.0329C21.7509 11.1534 21.2368 10.6433 20.0031 10.3266V8.76112C20.3801 8.84907 20.7399 9.00738 21.0998 9.28882L21.5453 8.51486C21.0998 8.18065 20.62 7.96956 20.0202 7.88161V7.3715H19.3177V7.86402C18.3067 7.95197 17.6384 8.56763 17.6384 9.44714C17.6384 10.3794 18.1868 10.8368 19.3691 11.1534V12.7717C18.8379 12.6837 18.4095 12.4375 17.964 12.0505ZM20.0202 11.2941C20.6542 11.4876 20.8256 11.7163 20.8256 12.0681C20.8256 12.4726 20.5343 12.7365 20.0202 12.7893V11.2941ZM18.598 9.37677C18.598 9.02497 18.8722 8.72594 19.3862 8.67317V10.1332C18.7694 9.93966 18.598 9.72858 18.598 9.37677Z" fill="#07729C"/>
</svg>
