<svg width="32" height="32" viewBox="0 0 32 32" fill="none" xmlns="http://www.w3.org/2000/svg">
<path d="M28.2783 18.407C27.9144 18.3255 27.5573 18.5497 27.4697 18.9166C26.2502 24.2507 21.5944 27.9811 16.157 27.9811C9.75607 27.9811 4.54776 22.7286 4.54776 16.2734C4.54776 9.81822 9.75607 4.55894 16.157 4.55894C19.0947 4.55894 21.8774 5.6801 24.0065 7.65743H21.5876C21.2171 7.65743 20.9139 7.9632 20.9139 8.33692C20.9139 8.71065 21.2171 9.01642 21.5876 9.01642H25.5966C25.5966 9.01642 25.6573 9.00283 25.6842 8.99603C25.7314 8.99603 25.7786 8.98244 25.8257 8.96885C25.8729 8.95526 25.9066 8.92808 25.947 8.9009C25.974 8.88731 26.0009 8.88052 26.0279 8.86013C26.0346 8.86013 26.0413 8.84655 26.0481 8.83975C26.0818 8.80578 26.1087 8.76501 26.1424 8.72424C26.1626 8.69026 26.1896 8.66308 26.2098 8.62911C26.23 8.59513 26.23 8.55436 26.2435 8.51359C26.2569 8.46603 26.2704 8.42526 26.2704 8.3709C26.2704 8.35731 26.2704 8.35051 26.2704 8.34372V4.29394C26.2704 3.92021 25.9672 3.61444 25.5966 3.61444C25.2261 3.61444 24.9229 3.92021 24.9229 4.29394V6.64499C22.5444 4.44343 19.4316 3.19995 16.157 3.19995C9.01492 3.19995 3.2002 9.06398 3.2002 16.2666C3.2002 23.4693 9.01492 29.3333 16.157 29.3333C22.2277 29.3333 27.4226 25.1748 28.7836 19.2156C28.8645 18.8487 28.6421 18.4818 28.2783 18.4002V18.407ZM24.431 11.9043C24.431 11.8431 24.4175 11.782 24.404 11.7276C24.404 11.7072 24.3906 11.6868 24.3838 11.6664C24.3704 11.6257 24.3569 11.5917 24.3367 11.5577C24.3232 11.5373 24.3097 11.517 24.2962 11.5034C24.276 11.4762 24.2491 11.4422 24.2221 11.4218C24.2019 11.4082 24.1884 11.3879 24.1682 11.3743C24.1548 11.3675 24.148 11.3539 24.1345 11.3403C24.1143 11.3267 24.0874 11.3199 24.0672 11.3063C24.0537 11.3063 24.0469 11.2859 24.0267 11.2859L20.0784 9.5736C20.0784 9.5736 20.0784 9.5736 20.0716 9.5736L16.4332 7.99038C16.2648 7.91564 16.0694 7.91564 15.9009 7.99038L8.30745 11.2927C8.30745 11.2927 8.2805 11.3063 8.26702 11.3131C8.24681 11.3267 8.21986 11.3335 8.19964 11.3471C8.18617 11.3539 8.17943 11.3675 8.16595 11.3743C8.14574 11.3879 8.13226 11.4014 8.11205 11.4218C8.0851 11.449 8.05815 11.4762 8.03793 11.5034C8.02446 11.5238 8.01098 11.5373 7.99751 11.5577C7.97729 11.5917 7.96382 11.6325 7.94361 11.6664C7.93687 11.6868 7.93013 11.7004 7.92339 11.7208C7.90992 11.782 7.89644 11.8363 7.89644 11.8975V20.4727C7.89644 20.7377 8.05141 20.9823 8.29397 21.091L15.8875 24.5293C15.8875 24.5293 15.9077 24.5293 15.9212 24.5293C16.002 24.5632 16.0829 24.5836 16.1637 24.5836C16.2446 24.5836 16.3322 24.5632 16.4063 24.5293C16.413 24.5293 16.4265 24.5293 16.44 24.5293L24.0335 21.091C24.276 20.9823 24.431 20.7377 24.431 20.4727V11.8975V11.9043ZM16.157 9.34937L18.1514 10.2191L12.3569 12.8352L10.2614 11.9179L16.157 9.35617V9.34937ZM15.4832 22.8781L9.23726 20.0514V12.9507L15.4832 15.6823V22.8849V22.8781ZM16.157 14.4931L14.0278 13.5622L19.8291 10.9462L22.0526 11.9111L16.157 14.4931ZM23.0834 20.0514L16.8375 22.8781V15.6755L23.0834 12.9439V20.0446V20.0514ZM19.9234 20.2756C20.0177 20.2756 20.1121 20.2552 20.2064 20.2145L22.2412 19.2632C22.5781 19.1069 22.7263 18.6992 22.5714 18.3595C22.4164 18.0197 22.0189 17.8702 21.6752 18.0265L19.6404 18.9778C19.3035 19.1341 19.1553 19.5418 19.3103 19.8815C19.4248 20.1329 19.6674 20.2756 19.9234 20.2756Z" fill="#07729C"/>
</svg>
