<svg width="36" height="36" viewBox="0 0 36 36" fill="none" xmlns="http://www.w3.org/2000/svg">
<path d="M12.8924 20.8201C13.1619 20.2356 13.4313 19.6511 13.7547 19.1251C12.4612 19.1251 11.3295 19.1251 10.2516 19.1251H9.22765C8.85039 19.1251 7.9881 19.1251 7.9881 19.9434C7.9881 20.1772 8.04199 20.3525 8.20367 20.5279C8.41925 20.7616 8.85039 20.8201 9.22765 20.8201C9.28154 20.8201 9.28154 20.8201 9.33543 20.8201C10.3594 20.8201 11.3834 20.8201 12.4073 20.8201C12.5151 20.8201 12.569 20.8201 12.8924 20.8201ZM11.6528 24.5607C10.8983 24.5607 10.0899 24.5607 9.33543 24.5607H9.28154C8.74261 24.5607 7.9881 24.5607 7.93421 25.379C7.93421 25.6128 7.9881 25.7881 8.14978 25.9635C8.41925 26.2557 8.7965 26.2557 9.28154 26.2557C9.76658 26.2557 10.2516 26.2557 10.7367 26.2557C11.0061 26.2557 11.2756 26.2557 11.5451 26.2557H11.9762C11.9762 26.0219 11.9223 25.7297 11.9223 25.4959C11.9223 25.2037 11.9223 24.853 11.9762 24.5607C11.8145 24.5607 11.8145 24.5607 11.6528 24.5607ZM23.8866 6.38356C23.3477 5.79909 22.4315 5.79909 21.2997 5.85753H21.2458C21.1381 5.85753 20.7069 5.85753 20.2219 5.85753C20.1141 5.85753 19.9524 5.85753 19.8446 5.85753C19.6829 4.74703 19.1979 4.39635 18.0122 4.3379C17.6889 4.3379 17.6889 4.27945 17.635 3.98721C17.5811 2.70137 16.9344 2.05845 15.6948 2C14.9942 2 13.4852 2 12.7846 2C11.5989 2.05845 10.8983 2.75982 10.7367 3.98721C10.7367 4.10411 10.7367 4.16256 10.6828 4.27945C10.1977 4.221 9.55101 4.27945 9.11986 4.68858C8.85039 4.98082 8.63482 5.33151 8.58093 5.85753C8.36535 5.85753 8.14978 5.85753 7.93421 5.85753C7.2336 5.85753 6.64077 5.85753 5.99405 5.85753C4.8084 5.85753 4.05389 6.61735 4 7.9032C4 8.19543 4 8.48767 4 8.72146V10.4749C4 16.7288 4 23.0411 4 29.295C4 31.0484 4.70061 31.8082 6.31741 31.8667C8.74261 31.8667 11.2217 31.8667 13.6469 31.8667C13.3235 31.3406 13.0002 30.7562 12.7307 30.1717C10.5211 30.1717 8.52703 30.1717 6.47909 30.1717C5.50901 30.1717 5.45512 30.1132 5.45512 29.0612C5.45512 22.3982 5.45512 15.6767 5.45512 9.0137C5.45512 8.8968 5.45512 8.83836 5.45512 8.72146C5.45512 8.48767 5.45512 8.25388 5.50901 8.07854C5.6168 7.84475 5.83237 7.61096 5.88626 7.61096C6.31741 7.55251 6.80245 7.55251 7.2336 7.55251C7.50306 7.55251 7.77253 7.55251 8.04199 7.55251C8.20367 7.55251 8.41925 7.55251 8.58093 7.55251C8.58093 7.66941 8.58093 7.72785 8.58093 7.84475C8.58093 8.13699 8.58093 8.31233 8.58093 8.66301C8.58093 9.07215 8.63482 9.36438 8.85039 9.53973C9.01207 9.77352 9.28154 9.83196 9.65879 9.83196C12.4612 9.83196 16.0182 9.83196 18.8206 9.83196C19.144 9.83196 19.4135 9.71507 19.629 9.53973C19.7907 9.36438 19.8985 9.07215 19.8985 8.72146C19.8985 8.31233 19.8985 7.96164 19.8985 7.61096V7.55251C20.4913 7.55251 21.4075 7.55251 22.2698 7.55251H22.4854C22.8087 7.55251 22.9704 7.66941 22.9704 8.07854C22.9704 8.19543 22.9704 8.31233 22.9704 8.42922C22.9704 8.60457 22.9704 8.77991 22.9704 8.95525C22.9704 10.7671 22.9704 12.1699 22.9704 13.9817C23.4555 14.0402 23.9944 13.9817 24.4794 14.0986C24.4794 12.2868 24.4794 11.0009 24.5333 9.18904C24.5333 7.66941 24.3178 6.85114 23.8866 6.38356ZM18.2278 8.25388C18.0122 8.25388 17.6889 8.19543 17.2577 8.19543H17.2038C16.611 8.19543 16.0182 8.19543 15.4254 8.19543H13.5391C13.3235 8.19543 13.108 8.19543 12.8924 8.19543C12.1379 8.19543 11.3295 8.19543 10.575 8.19543C10.4133 8.19543 10.3055 8.19543 10.1977 8.25388C10.2516 7.66941 10.2516 7.02648 10.1977 6.38356C10.1977 6.20822 10.1977 6.09132 10.2516 6.09132C10.2516 6.09132 10.3055 6.03288 10.5211 6.03288C10.6828 6.03288 10.8983 6.03288 11.06 6.03288C12.084 6.03288 12.2996 5.79909 12.3535 4.68858C12.2996 3.75342 12.2996 3.75342 13.1619 3.75342C13.3774 3.75342 14.3475 3.75342 14.5631 3.75342C14.9403 3.75342 15.3176 3.75342 15.6948 3.75342C15.9104 3.75342 16.0721 3.81187 16.126 3.87032C16.1799 3.92877 16.2338 4.10411 16.2338 4.3379C16.2338 4.45479 16.2338 4.57169 16.2338 4.63014C16.2338 4.74703 16.2338 4.92237 16.2338 5.03927C16.2338 5.38995 16.2877 5.62374 16.4493 5.79909C16.611 5.97443 16.8805 6.09132 17.2038 6.03288C17.5811 6.03288 18.2278 5.97443 18.3356 6.09132C18.3895 6.14977 18.3895 6.50046 18.3895 6.79269C18.3895 6.96804 18.3895 7.14338 18.3895 7.37717C18.3895 7.66941 18.3895 7.9032 18.3895 8.07854C18.3895 8.13699 18.3895 8.19543 18.3895 8.25388C18.2817 8.25388 18.2278 8.25388 18.2278 8.25388ZM10.2516 14.0402H9.22765C8.85039 14.0402 7.9881 14.0402 7.9881 14.8584C7.9881 15.0922 8.04199 15.2676 8.20367 15.4429C8.41925 15.6767 8.85039 15.7352 9.22765 15.7352C9.28154 15.7352 9.28154 15.7352 9.33543 15.7352C10.3594 15.7352 11.3834 15.7352 12.4073 15.7352C12.8924 15.7352 14.1319 15.7352 14.5631 15.7352H15.7487C16.3416 15.7352 16.2877 15.7352 16.8266 15.7352C16.8266 15.7352 19.5752 14.0402 19.629 14.0402C19.5752 14.0402 12.9463 14.0402 10.2516 14.0402Z" fill="#C4C4C4"/>
<path d="M24.02 21.5328H21.8587V24.8024H18.4783V26.9636H21.8587V30.3995H24.02V26.9636H27.4004V24.8024H24.02V21.5328ZM23.1333 16.9332C18.2567 16.9332 14.2667 20.9232 14.2667 25.7999C14.2667 30.6766 18.2567 34.6666 23.1333 34.6666C28.01 34.6666 32 30.6766 32 25.7999C32 20.9232 28.01 16.9332 23.1333 16.9332ZM23.1333 32.4499C19.4758 32.4499 16.4833 29.4574 16.4833 25.7999C16.4833 22.1424 19.4758 19.1499 23.1333 19.1499C26.7908 19.1499 29.7833 22.1424 29.7833 25.7999C29.7833 29.4574 26.7908 32.4499 23.1333 32.4499Z" fill="#07729C"/>
</svg>
